<svg width="38" height="38" viewBox="0 0 38 38" fill="none" xmlns="http://www.w3.org/2000/svg">
<g clip-path="url(#clip0_11941_1444)">
<path d="M24.8492 17.2921L16.4541 12.6987C15.9714 12.4346 15.4008 12.4444 14.9277 12.7248C14.4543 13.0054 14.1719 13.5012 14.1719 14.0514V23.1595C14.1719 23.7071 14.4525 24.202 14.9228 24.4829C15.1683 24.6296 15.4405 24.7033 15.7134 24.7033C15.9633 24.7033 16.2138 24.6415 16.4442 24.5174L24.8396 20.0031C25.338 19.735 25.6491 19.2169 25.6514 18.6507C25.6534 18.0845 25.3461 17.5641 24.8492 17.2921ZM16.3987 22.0137V15.2065L22.6731 18.6397L16.3987 22.0137Z" fill="#4D4D4D"/>
<path d="M37.7204 11.3946L37.7186 11.3772C37.6865 11.0713 37.3661 8.35077 36.0435 6.967C34.5148 5.3394 32.7817 5.14168 31.9481 5.04687C31.8791 5.03905 31.8159 5.0318 31.7594 5.02426L31.693 5.0173C26.6694 4.65201 19.0826 4.60214 19.0066 4.60185L18.9999 4.60156L18.9933 4.60185C18.9173 4.60214 11.3305 4.65201 6.2616 5.0173L6.19463 5.02426C6.14071 5.03151 6.08127 5.03818 6.01662 5.04572C5.19268 5.14081 3.47812 5.33882 1.94505 7.02527C0.685361 8.39426 0.321227 11.0566 0.283828 11.3558L0.279479 11.3946C0.268172 11.5219 0 14.5518 0 17.5936V20.4371C0 23.4789 0.268172 26.5089 0.279479 26.6364L0.281508 26.6555C0.313689 26.9565 0.633756 29.6272 1.95026 31.0115C3.38767 32.5846 5.20515 32.7928 6.18274 32.9047C6.33727 32.9224 6.47034 32.9375 6.56109 32.9534L6.64893 32.9656C9.54954 33.2416 18.6439 33.3776 19.0295 33.3831L19.0411 33.3834L19.0527 33.3831C19.1286 33.3828 26.7152 33.3329 31.7388 32.9676L31.8052 32.9607C31.8687 32.9523 31.94 32.9447 32.0183 32.9366C32.8376 32.8496 34.5429 32.669 36.0548 31.0055C37.3145 29.6362 37.6789 26.9739 37.716 26.675L37.7204 26.6361C37.7317 26.5086 38.0001 23.4789 38.0001 20.4371V17.5936C37.9999 14.5518 37.7317 11.5222 37.7204 11.3946ZM35.773 20.4371C35.773 23.2525 35.5272 26.152 35.504 26.4181C35.4095 27.1513 35.0253 28.8357 34.4116 29.5028C33.4653 30.5439 32.4932 30.6471 31.7835 30.7222C31.6977 30.7312 31.6182 30.7399 31.5463 30.7489C26.6873 31.1003 19.387 31.1542 19.0507 31.1562C18.6735 31.1507 9.71218 31.0136 6.9 30.7524C6.75591 30.7289 6.60022 30.7109 6.43613 30.6924C5.60378 30.597 4.46441 30.4665 3.58829 29.5028L3.5677 29.4808C2.96468 28.8525 2.59156 27.2774 2.49676 26.4268C2.47907 26.2256 2.22684 23.2919 2.22684 20.4371V17.5936C2.22684 14.7814 2.47211 11.8851 2.49589 11.6135C2.60866 10.7498 3.00005 9.16746 3.58829 8.52791C4.56357 7.45522 5.5919 7.33635 6.27204 7.25778C6.33698 7.25024 6.39757 7.24329 6.45353 7.23604C11.3833 6.88292 18.7361 6.83044 18.9999 6.82841C19.2637 6.83015 26.614 6.88292 31.4999 7.23604C31.5599 7.24358 31.6255 7.25111 31.6959 7.25923C32.3955 7.33896 33.4528 7.45956 34.4232 8.49457L34.4321 8.50413C35.0352 9.13239 35.4083 10.735 35.5031 11.6028C35.5199 11.7927 35.773 14.7327 35.773 17.5936V20.4371Z" fill="#4D4D4D"/>
</g>
<defs>
<clipPath id="clip0_11941_1444">
<rect width="38" height="38" fill="white"/>
</clipPath>
</defs>
</svg>
